<svg viewBox="0 0 560 500" xmlns="http://www.w3.org/2000/svg" font-family="system-ui, -apple-system, sans-serif">
  <rect width="560" height="500" fill="#f5f4f0" rx="16"/>
  <text x="28" y="30" font-size="11" fill="#9a9890" font-weight="500" letter-spacing="0.06em">RISK FACTORS · SOLUTIONS PATHWAY</text>

  <!-- Risk panel -->
  <rect x="20" y="44" width="254" height="440" fill="white" rx="12" stroke="#e0dfd9" stroke-width="0.5"/>

  <!-- Tabs -->
  <text x="36" y="72" font-size="11" fill="#9a9890">Rights map</text>
  <text x="106" y="72" font-size="11" fill="#1a1a18" font-weight="500">Risk factors</text>
  <line x1="102" y1="82" x2="162" y2="82" stroke="#1a1a18" stroke-width="2"/>
  <text x="174" y="72" font-size="11" fill="#9a9890">Solutions</text>
  <text x="232" y="72" font-size="11" fill="#9a9890">UN goals</text>
  <line x1="20" y1="84" x2="274" y2="84" stroke="#eeede8" stroke-width="0.5"/>

  <text x="36" y="104" font-size="9" fill="#9a9890" font-weight="500" letter-spacing="0.06em">VULNERABILITY &amp; RISK PROFILE</text>

  <!-- Metric cards -->
  <rect x="36" y="112" width="106" height="52" fill="#f5f4f0" rx="8"/>
  <text x="48" y="130" font-size="10" fill="#6b6a66">composite risk score</text>
  <text x="48" y="152" font-size="22" fill="#1a1a18" font-weight="500">92<tspan font-size="13" fill="#6b6a66">/100</tspan></text>

  <rect x="150" y="112" width="108" height="52" fill="#f5f4f0" rx="8"/>
  <text x="162" y="130" font-size="10" fill="#6b6a66">classification</text>
  <rect x="162" y="140" width="84" height="18" fill="#fcebeb" rx="9"/>
  <text x="204" y="153" font-size="10" fill="#a32d2d" text-anchor="middle">Extreme vulnerability</text>

  <!-- Risk bars -->
  <text x="36" y="186" font-size="10" fill="#9a9890">Years stateless (indexed)</text>
  <text x="258" y="186" font-size="10" fill="#6b6a66" text-anchor="end">95/100</text>
  <rect x="36" y="192" width="222" height="5" fill="#eeede8" rx="2.5"/>
  <rect x="36" y="192" width="211" height="5" fill="#E24B4A" rx="2.5"/>

  <text x="36" y="212" font-size="10" fill="#9a9890">Documentation burden</text>
  <text x="258" y="212" font-size="10" fill="#6b6a66" text-anchor="end">98/100</text>
  <rect x="36" y="218" width="222" height="5" fill="#eeede8" rx="2.5"/>
  <rect x="36" y="218" width="218" height="5" fill="#E24B4A" rx="2.5"/>

  <text x="36" y="238" font-size="10" fill="#9a9890">Physical confinement</text>
  <text x="258" y="238" font-size="10" fill="#6b6a66" text-anchor="end">92/100</text>
  <rect x="36" y="244" width="222" height="5" fill="#eeede8" rx="2.5"/>
  <rect x="36" y="244" width="204" height="5" fill="#E24B4A" rx="2.5"/>

  <text x="36" y="264" font-size="10" fill="#9a9890">Child statelessness risk</text>
  <text x="258" y="264" font-size="10" fill="#6b6a66" text-anchor="end">97/100</text>
  <rect x="36" y="270" width="222" height="5" fill="#eeede8" rx="2.5"/>
  <rect x="36" y="270" width="215" height="5" fill="#E24B4A" rx="2.5"/>

  <text x="36" y="290" font-size="10" fill="#9a9890">Gender discrimination</text>
  <text x="258" y="290" font-size="10" fill="#6b6a66" text-anchor="end">78/100</text>
  <rect x="36" y="296" width="222" height="5" fill="#eeede8" rx="2.5"/>
  <rect x="36" y="296" width="173" height="5" fill="#BA7517" rx="2.5"/>

  <text x="36" y="316" font-size="10" fill="#9a9890">Exploitation risk</text>
  <text x="258" y="316" font-size="10" fill="#6b6a66" text-anchor="end">90/100</text>
  <rect x="36" y="322" width="222" height="5" fill="#eeede8" rx="2.5"/>
  <rect x="36" y="322" width="200" height="5" fill="#E24B4A" rx="2.5"/>

  <!-- Risk note -->
  <rect x="28" y="344" width="238" height="52" fill="#f5f4f0" rx="6"/>
  <text x="40" y="360" font-size="9" fill="#6b6a66">Composite methodology based on UNHCR vulnerability</text>
  <text x="40" y="374" font-size="9" fill="#6b6a66">assessment framework. Scores use proxy data from</text>
  <text x="40" y="388" font-size="9" fill="#6b6a66">UNHCR statistical reports and legal exposure indices.</text>

  <!-- Solutions pathway panel -->
  <rect x="286" y="44" width="254" height="440" fill="white" rx="12" stroke="#e0dfd9" stroke-width="0.5"/>

  <!-- Tabs -->
  <text x="302" y="72" font-size="11" fill="#9a9890">Rights map</text>
  <text x="368" y="72" font-size="11" fill="#9a9890">Risk factors</text>
  <text x="436" y="72" font-size="11" fill="#1a1a18" font-weight="500">Solutions</text>
  <line x1="432" y1="82" x2="484" y2="82" stroke="#1a1a18" stroke-width="2"/>
  <text x="496" y="72" font-size="11" fill="#9a9890">UN goals</text>
  <line x1="286" y1="84" x2="540" y2="84" stroke="#eeede8" stroke-width="0.5"/>

  <text x="302" y="104" font-size="9" fill="#9a9890" font-weight="500" letter-spacing="0.06em">PATHWAY TO DURABLE SOLUTIONS</text>

  <!-- Step 1 — BLOCKED -->
  <circle cx="318" cy="128" r="13" fill="transparent" stroke="#c8c7c2" stroke-width="2"/>
  <text x="318" y="133" font-size="11" fill="#9a9890" text-anchor="middle">1</text>
  <line x1="318" y1="141" x2="318" y2="186" stroke="#eeede8" stroke-width="2"/>

  <text x="340" y="122" font-size="12" fill="#1a1a18" font-weight="500">Statelessness determination</text>
  <rect x="340" y="126" width="52" height="15" fill="#fcebeb" rx="7"/>
  <text x="366" y="137" font-size="9" fill="#a32d2d" text-anchor="middle">blocked</text>
  <text x="340" y="152" font-size="10" fill="#6b6a66">No SSD system in Bangladesh.</text>
  <text x="340" y="165" font-size="10" fill="#6b6a66">Myanmar rejects all returnees.</text>
  <rect x="340" y="172" width="88" height="14" fill="#fcebeb" rx="3"/>
  <text x="344" y="182" font-size="9" fill="#a32d2d">✕ No SSD in Bangladesh</text>

  <!-- Step 2 — BLOCKED -->
  <circle cx="318" cy="204" r="13" fill="transparent" stroke="#c8c7c2" stroke-width="2"/>
  <text x="318" y="209" font-size="11" fill="#9a9890" text-anchor="middle">2</text>
  <line x1="318" y1="217" x2="318" y2="268" stroke="#eeede8" stroke-width="2"/>

  <text x="340" y="200" font-size="12" fill="#1a1a18" font-weight="500">Civil documentation access</text>
  <rect x="340" y="204" width="52" height="15" fill="#fcebeb" rx="7"/>
  <text x="366" y="215" font-size="9" fill="#a32d2d" text-anchor="middle">blocked</text>
  <text x="340" y="232" font-size="10" fill="#6b6a66">No travel doc, birth cert, or</text>
  <text x="340" y="245" font-size="10" fill="#6b6a66">national ID from either state.</text>
  <rect x="340" y="252" width="96" height="14" fill="#fcebeb" rx="3"/>
  <text x="344" y="262" font-size="9" fill="#a32d2d">✕ 1982 Myanmar Citizenship Law</text>

  <!-- Step 3 — BLOCKED -->
  <circle cx="318" cy="286" r="13" fill="transparent" stroke="#c8c7c2" stroke-width="2"/>
  <text x="318" y="291" font-size="11" fill="#9a9890" text-anchor="middle">3</text>
  <line x1="318" y1="299" x2="318" y2="350" stroke="#eeede8" stroke-width="2"/>

  <text x="340" y="282" font-size="12" fill="#1a1a18" font-weight="500">Local integration / resettlement</text>
  <rect x="340" y="286" width="52" height="15" fill="#fcebeb" rx="7"/>
  <text x="366" y="297" font-size="9" fill="#a32d2d" text-anchor="middle">blocked</text>
  <text x="340" y="314" font-size="10" fill="#6b6a66">Bangladesh prohibits integration.</text>
  <text x="340" y="327" font-size="10" fill="#6b6a66">Resettlement severely limited.</text>
  <rect x="340" y="334" width="72" height="14" fill="#eaf3de" rx="3"/>
  <text x="344" y="344" font-size="9" fill="#3b6d11">✓ UNHCR pipeline (small)</text>

  <!-- Step 4 — BLOCKED -->
  <circle cx="318" cy="368" r="13" fill="transparent" stroke="#c8c7c2" stroke-width="2"/>
  <text x="318" y="373" font-size="11" fill="#9a9890" text-anchor="middle">4</text>

  <text x="340" y="364" font-size="12" fill="#1a1a18" font-weight="500">Voluntary return with nationality</text>
  <rect x="340" y="368" width="52" height="15" fill="#fcebeb" rx="7"/>
  <text x="366" y="379" font-size="9" fill="#a32d2d" text-anchor="middle">blocked</text>
  <text x="340" y="396" font-size="10" fill="#6b6a66">Myanmar refuses all nationality</text>
  <text x="340" y="409" font-size="10" fill="#6b6a66">restoration for Rohingya.</text>
  <rect x="340" y="416" width="106" height="14" fill="#fcebeb" rx="3"/>
  <text x="344" y="426" font-size="9" fill="#a32d2d">✕ Safety conditions unmet</text>

  <!-- Footer note -->
  <text x="40" y="492" font-size="10" fill="#9a9890">Convention framework: 1954 · 1961 · UNHCR durable solutions · IACHR regional mechanisms</text>
</svg>
